#define layout_dishes_width 15
#define layout_dishes_height 9
static unsigned char layout_dishes_bits[] = {
   0xff, 0x7f, 0x01, 0x40, 0x01, 0x40, 0x01, 0x40, 0xff, 0x7f, 0x01, 0x40,
   0xff, 0x7f, 0x01, 0x40, 0xff, 0x7f };
